<svg width="128mm" height="222.93mm" version="1.1" viewBox="0 0 128 222.93" xmlns="http://www.w3.org/2000/svg">
 <defs>
  <clipPath id="clipPath32-9-7-4-0-6-4-27">
   <path d="m2972.2 4989.3c0-62.27 17.46-120.28 47.3-170.2-903.79-899.8-2211.3-1385.9-2486.4-1242.8-38.559 20.08-60.82 51.21-70.078 98.01-17.192 87.26 17.07 217.46 87.187 359.84-42.109 35.82-90.82 67.27-137.7 77.89-81.371-161.84-130.47-330.16-103.32-468.01 18.402-93.24 70.859-164.84 151.56-206.87 50.203-26.02 119.46-38.79 204.3-38.79 525.08 0 1641.6 488.83 2464.2 1308.7 51.13-32.03 111.29-50.86 176.01-50.86 183.6 0 333.09 149.41 333.09 333.09 0 183.63-149.49 333.04-333.09 333.04-183.67 0-333.08-149.41-333.08-333.04m156.76 0c0 97.26 79.06 176.29 176.32 176.29 97.15 0 176.37-79.03 176.37-176.29 0-97.27-79.22-176.33-176.37-176.33-97.26 0-176.32 79.06-176.32 176.33"/>
  </clipPath>
  <clipPath id="clipPath52-0-7-7-9-5-3-1">
   <path d="m2233.8 3605.7-411.17-366.25c-56.41-50.23-107.78-144.49-119.42-219.14l-23.59-151.64c-254.06-156.13-752.93-339.14-842.93-202.65-11.25 17.1-40.27 86.36 59.371 262.89-33.781 52.57-82.461 82.14-125.23 96.99-112.62-190.63-135.39-339.18-65.082-446.1 56.024-84.96 152.5-117.07 265.9-117.07 272.5 0 642.07 185.16 784.77 269.46l133.47-62.54c45.28-21.13 107.35-32.74 165.28-32.74 29.68 0 58.28 3.01 83 9.34l533.56 136.25c78.4 20.16 162.85 90.74 196.56 164.22l79.69 173.94-142.42 65.32-79.69-173.95c-14.1-30.74-60.24-69.18-93.01-77.69l-533.47-136.25c-38.05-9.69-107.62-3.01-143.17 13.47l-118.32 55.55 20.2 128.98c6.05 38.87 39.45 100.2 68.86 126.33l411.02 366.17c25.39 22.5 83.05 39.46 116.44 33.64l188.75-31.06 25.59 154.77-188.87 30.94c-12.61 2.1-25.82 3.16-39.41 3.16-72.54 0-155.7-28.99-206.68-74.34"/>
  </clipPath>
 </defs>
 <g transform="translate(-41.013 -36.847)">
  <g transform="translate(56.08 -321.49)">
   <g transform="translate(15.37 51.765)" fill="#edf0f1">
    <g transform="matrix(.26458 0 0 .26458 -32.666 325.25)" stroke-width="1px" style="shape-inside:url(#rect4904-4-1-4-8-3-7-60);white-space:pre" aria-label="Focus on Accreditation Consultation &amp; Training">
     <path d="m24.68 711.82v-32.247h19.367v3.3133h-15.633v12.413h13.207v3.3133h-13.207v13.207z"/>
     <path d="m56.32 712.29q-3.92 0-6.1133-1.3533-2.1467-1.3533-3.0333-4.1067-0.84-2.7533-0.84-6.9533 0-4.0133 0.93333-6.6267 0.98-2.6133 3.1733-3.92t5.88-1.3067q3.7333 0 5.9267 1.3067t3.1267 3.92q0.98 2.6133 0.98 6.6267 0 4.2-0.88667 6.9533-0.84 2.7533-3.0333 4.1067-2.1467 1.3533-6.1133 1.3533zm0-3.1267q2.7067 0 4.06-0.93334 1.3533-0.98 1.7733-3.0333 0.46667-2.0533 0.46667-5.32 0-3.22-0.56-5.1333-0.56-1.9133-1.9133-2.7533-1.3533-0.84-3.8267-0.84-2.4267 0-3.8267 0.84-1.3533 0.84-1.9133 2.7533-0.56 1.9133-0.56 5.1333 0 3.2667 0.42 5.32 0.46667 2.0533 1.82 3.0333 1.3533 0.93334 4.06 0.93334z"/>
     <path d="m80.68 712.29q-3.6867 0-5.7867-1.2133-2.1-1.26-2.9867-4.0133-0.84-2.7533-0.84-7.28 0-4.2467 0.93333-6.8133 0.98-2.6133 3.1267-3.78 2.1467-1.1667 5.6-1.1667 0.79333 0 1.9133 0.14 1.1667 0.0933 2.38 0.28 1.2133 0.14 2.1 0.28l-0.14 2.9867q-0.79333-0.0933-1.82-0.18667-1.0267-0.0933-2.0067-0.14-0.98-0.0933-1.6333-0.0933-2.66 0-4.1533 0.84-1.4467 0.84-2.0533 2.7067-0.56 1.82-0.56 4.9467 0 3.4067 0.51333 5.46 0.51333 2.0067 1.96 2.8933 1.4467 0.88667 4.2933 0.88667 0.65333 0 1.6333-0.0467 1.0267-0.0933 2.0533-0.18667 1.0733-0.0933 1.8667-0.14l0.09333 2.9867q-0.93333 0.14-2.1467 0.28-1.2133 0.14-2.38 0.23333-1.1667 0.14-1.96 0.14z"/>
     <path d="m99.486 712.29q-2.9867 0-4.5733-1.2133t-2.1933-3.78q-0.56-2.5667-0.56-6.6267v-12.18h3.5933v12.18q0 3.08 0.28 4.9 0.32667 1.82 1.3533 2.66 1.0267 0.79334 3.08 0.79334 2.0533 0 3.7333-0.56001 1.68-0.56 2.7067-1.12v-18.853h3.5933v23.333h-3.5933v-1.6333q-1.4933 0.84-3.2667 1.4933-1.7267 0.60666-4.1533 0.60666z"/>
     <path d="m124.5 712.29q-1.0733 0-2.6133-0.14-1.4933-0.14-2.9867-0.32666-1.4933-0.23334-2.66-0.42l0.18666-3.1267q1.1667 0.14 2.6133 0.32666 1.4933 0.18667 2.8933 0.32667 1.4 0.0933 2.24 0.0933 1.9133 0 3.1733-0.32667 1.26-0.37334 1.9133-1.2133 0.65334-0.84 0.65334-2.38 0-1.1667-0.51334-1.82-0.46666-0.65333-1.82-1.0733-1.3067-0.42-3.8267-0.79334-2.6133-0.42-4.3867-1.0267-1.7267-0.65334-2.5667-1.9133t-0.84-3.5933q0-2.6133 1.2133-4.1067 1.2133-1.4933 3.1267-2.1 1.96-0.65333 4.06-0.65333 1.3067 0 2.8467 0.14 1.5867 0.14 3.08 0.37333 1.4933 0.18667 2.5667 0.37334l-0.0933 3.1267q-1.12-0.18667-2.6133-0.32667-1.4933-0.18667-2.9867-0.28-1.4933-0.14-2.6133-0.14-1.4 0-2.52 0.32667-1.12 0.28-1.7733 1.0267-0.65333 0.74667-0.65333 2.1 0 1.0267 0.46666 1.68 0.46667 0.60666 1.7733 1.0267t3.78 0.84q2.8933 0.46667 4.62 1.1667 1.7733 0.7 2.5667 1.96 0.79334 1.26 0.79334 3.5467 0 4.1067-2.4267 5.74-2.4267 1.5867-6.6733 1.5867z"/>
     <path d="m166.22 712.29q-3.92 0-6.1133-1.3533-2.1467-1.3533-3.0333-4.1067-0.84001-2.7533-0.84001-6.9533 0-4.0133 0.93334-6.6267 0.98-2.6133 3.1733-3.92 2.1933-1.3067 5.88-1.3067 3.7333 0 5.9267 1.3067 2.1933 1.3067 3.1267 3.92 0.98 2.6133 0.98 6.6267 0 4.2-0.88667 6.9533-0.84 2.7533-3.0333 4.1067-2.1467 1.3533-6.1133 1.3533zm0-3.1267q2.7067 0 4.06-0.93334 1.3533-0.98 1.7733-3.0333 0.46666-2.0533 0.46666-5.32 0-3.22-0.56-5.1333-0.56-1.9133-1.9133-2.7533-1.3533-0.84-3.8267-0.84-2.4267 0-3.8267 0.84-1.3533 0.84-1.9133 2.7533-0.56 1.9133-0.56 5.1333 0 3.2667 0.42 5.32 0.46667 2.0533 1.82 3.0333 1.3533 0.93334 4.06 0.93334z"/>
     <path d="m181.95 711.82v-23.333h3.5933v1.6333q0.79333-0.46666 1.96-0.93333 1.2133-0.46667 2.5667-0.79334 1.3533-0.37333 2.6133-0.37333 3.22 0 4.9 1.1667 1.7267 1.12 2.38 3.64 0.65333 2.52 0.65333 6.6267v12.367h-3.64v-12.227q0-3.0333-0.37333-4.8533-0.32667-1.82-1.4-2.6133-1.0267-0.84-3.1733-0.84-1.1667 0-2.4267 0.28-1.2133 0.23333-2.2867 0.65333-1.0733 0.37334-1.7733 0.74667v18.853z"/>
     <path d="m223.06 711.82 8.82-32.247h8.0733l8.7733 32.247h-3.7333l-2.2867-8.1667h-13.627l-2.2867 8.1667zm6.8133-11.48h12.04l-4.8067-17.593h-2.4267z"/>
     <path d="m261.47 712.29q-3.6867 0-5.7867-1.2133-2.1-1.26-2.9867-4.0133-0.84-2.7533-0.84-7.28 0-4.2467 0.93333-6.8133 0.98-2.6133 3.1267-3.78t5.6-1.1667q0.79333 0 1.9133 0.14 1.1667 0.0933 2.38 0.28 1.2133 0.14 2.1 0.28l-0.14 2.9867q-0.79333-0.0933-1.82-0.18667-1.0267-0.0933-2.0067-0.14-0.98-0.0933-1.6333-0.0933-2.66 0-4.1533 0.84-1.4467 0.84-2.0533 2.7067-0.56 1.82-0.56 4.9467 0 3.4067 0.51333 5.46 0.51334 2.0067 1.96 2.8933 1.4467 0.88667 4.2933 0.88667 0.65333 0 1.6333-0.0467 1.0267-0.0933 2.0533-0.18667 1.0733-0.0933 1.8667-0.14l0.0933 2.9867q-0.93333 0.14-2.1467 0.28-1.2133 0.14-2.38 0.23333-1.1667 0.14-1.96 0.14z"/>
     <path d="m281.54 712.29q-3.6867 0-5.7867-1.2133-2.1-1.26-2.9867-4.0133-0.84-2.7533-0.84-7.28 0-4.2467 0.93334-6.8133 0.98-2.6133 3.1267-3.78t5.6-1.1667q0.79333 0 1.9133 0.14 1.1667 0.0933 2.38 0.28 1.2133 0.14 2.1 0.28l-0.14 2.9867q-0.79334-0.0933-1.82-0.18667-1.0267-0.0933-2.0067-0.14-0.98-0.0933-1.6333-0.0933-2.66 0-4.1533 0.84-1.4467 0.84-2.0533 2.7067-0.56 1.82-0.56 4.9467 0 3.4067 0.51334 5.46 0.51333 2.0067 1.96 2.8933t4.2933 0.88667q0.65334 0 1.6333-0.0467 1.0267-0.0933 2.0533-0.18667 1.0733-0.0933 1.8667-0.14l0.0933 2.9867q-0.93334 0.14-2.1467 0.28-1.2133 0.14-2.38 0.23333-1.1667 0.14-1.96 0.14z"/>
     <path d="m293.25 711.82v-23.333h3.5933v3.1267q0.88667-0.60667 2.24-1.3067 1.3533-0.74667 2.9867-1.4 1.6333-0.65334 3.2667-0.93334v3.6867q-1.5867 0.32667-3.22 0.88667-1.6333 0.51333-3.0333 1.12-1.3533 0.60667-2.24 1.0733v17.08z"/>
     <path d="m317.24 712.29q-3.5 0-5.5533-1.3533-2.0067-1.3533-2.8933-4.0133-0.88667-2.66-0.88667-6.6267 0-4.4333 1.2133-7.0933 1.2133-2.7067 3.4067-3.92 2.1933-1.26 5.18-1.26 4.6667 0 7.0467 2.6133 2.38 2.5667 2.38 8.3067l-0.18666 2.7533h-15.353q0.0467 3.64 1.3533 5.5067 1.3067 1.8667 4.7133 1.8667 1.3067 0 2.8467-0.0467 1.5867-0.0933 3.1267-0.18667 1.54-0.0933 2.6133-0.18667l0.0933 2.8467q-1.12 0.18667-2.7533 0.37333-1.5867 0.18667-3.2667 0.28-1.68 0.14-3.08 0.14zm-5.6467-13.533h11.9q0-4.2933-1.4-5.9733-1.3533-1.7267-4.3867-1.7267-2.94 0-4.5267 1.7733-1.5867 1.7733-1.5867 5.9267z"/>
     <path d="m339.92 712.29q-1.4 0-2.66-0.32666-1.26-0.28-2.3333-1.0267-1.0267-0.74667-1.82-2.0533-0.79334-1.3533-1.2133-3.4533t-0.42-5.0867q0-4.1533 0.98-6.86 0.98-2.7533 3.1267-4.1067 2.1467-1.3533 5.6933-1.3533 1.3533 0 3.0333 0.23333 1.68 0.18667 2.6133 0.37334v-10.267h3.64v33.46h-3.5933v-1.54q-0.74667 0.42-1.96 0.88666-1.1667 0.46667-2.52 0.79334-1.3067 0.32666-2.5667 0.32666zm0.46666-3.2667q1.2133 0 2.4267-0.28001 1.26-0.28 2.3333-0.65333 1.0733-0.42 1.7733-0.74667v-15.633q-0.56-0.0933-1.54-0.18667-0.98-0.14-2.0533-0.23333-1.0267-0.0933-1.8667-0.0933-2.38 0-3.7333 1.0267-1.3533 1.0267-1.96 3.08-0.56 2.0067-0.56 5.04 0 2.8 0.42 4.5267 0.42 1.68 1.12 2.6133 0.74667 0.88667 1.68 1.2133t1.96 0.32667z"/>
     <path d="m357.28 711.82v-23.333h3.5933v23.333zm0-28.467v-4.2h3.5933v4.2z"/>
     <path d="m375.24 712.34q-2.4267 0-3.8733-0.74667-1.4-0.74666-2.0067-2.5667-0.60667-1.8667-0.60667-5.2267v-12.18h-3.3133v-3.1267h3.3133v-7.14h3.5933v7.14h7.3267v3.1267h-7.3267v11.107q0 2.4733 0.18667 3.8733 0.23333 1.3533 0.93333 1.9133t2.1933 0.56q0.46666 0 1.2133-0.0467t1.4933-0.0933q0.79334-0.0933 1.4-0.14l0.23333 3.0333q-1.0267 0.14-2.4267 0.32666-1.4 0.18667-2.3333 0.18667z"/>
     <path d="m389.06 712.29q-3.22 0-4.9-1.82t-1.68-5.32q0-2.2867 0.79333-3.7333 0.79333-1.4467 2.38-2.1933 1.6333-0.79334 4.0133-0.98l7.1867-0.7v-2.0067q0-2.38-1.0733-3.36-1.0267-0.98-3.08-0.98-1.1667 0-2.8 0.0933-1.5867 0.0933-3.1733 0.23333-1.5867 0.14-2.8 0.28l-0.18666-2.7533q1.12-0.23334 2.7067-0.46667 1.5867-0.23333 3.3133-0.37333 1.7267-0.18667 3.1733-0.18667 2.66 0 4.34 0.84 1.68 0.79334 2.4267 2.4733 0.79333 1.6333 0.79333 4.2v11.807q0.0933 1.0267 0.79334 1.4933 0.74666 0.46667 1.8667 0.60667l-0.14 2.8467q-1.0267 0-1.8667-0.14-0.84-0.0933-1.5867-0.32666-0.60667-0.23334-1.1667-0.56-0.51333-0.32667-1.0267-0.79334-0.88666 0.37334-2.2867 0.79334-1.3533 0.42-2.94 0.7-1.54 0.32666-3.08 0.32666zm0.60667-3.0333q1.26 0 2.6133-0.23333 1.3533-0.23334 2.5667-0.56001 1.2133-0.32666 2.0067-0.60666v-7.6067l-6.7667 0.65333q-2.1 0.18667-3.0333 1.2133-0.88666 1.0267-0.88666 2.94 0 1.96 0.88666 3.08 0.88667 1.12 2.6133 1.12z"/>
     <path d="m414.77 712.34q-2.4267 0-3.8733-0.74667-1.4-0.74666-2.0067-2.5667-0.60666-1.8667-0.60666-5.2267v-12.18h-3.3133v-3.1267h3.3133v-7.14h3.5933v7.14h7.3267v3.1267h-7.3267v11.107q0 2.4733 0.18667 3.8733 0.23333 1.3533 0.93333 1.9133t2.1933 0.56q0.46666 0 1.2133-0.0467t1.4933-0.0933q0.79333-0.0933 1.4-0.14l0.23333 3.0333q-1.0267 0.14-2.4267 0.32666-1.4 0.18667-2.3333 0.18667z"/>
     <path d="m423.5 711.82v-23.333h3.5933v23.333zm0-28.467v-4.2h3.5933v4.2z"/>
     <path d="m442.77 712.29q-3.92 0-6.1133-1.3533-2.1467-1.3533-3.0333-4.1067-0.84-2.7533-0.84-6.9533 0-4.0133 0.93333-6.6267 0.98-2.6133 3.1733-3.92 2.1933-1.3067 5.88-1.3067 3.7333 0 5.9267 1.3067 2.1933 1.3067 3.1267 3.92 0.98 2.6133 0.98 6.6267 0 4.2-0.88666 6.9533-0.84001 2.7533-3.0333 4.1067-2.1467 1.3533-6.1133 1.3533zm0-3.1267q2.7067 0 4.06-0.93334 1.3533-0.98 1.7733-3.0333 0.46667-2.0533 0.46667-5.32 0-3.22-0.56-5.1333-0.56-1.9133-1.9133-2.7533-1.3533-0.84-3.8267-0.84-2.4267 0-3.8267 0.84-1.3533 0.84-1.9133 2.7533-0.56 1.9133-0.56 5.1333 0 3.2667 0.42 5.32 0.46667 2.0533 1.82 3.0333 1.3533 0.93334 4.06 0.93334z"/>
     <path d="m458.5 711.82v-23.333h3.5933v1.6333q0.79333-0.46666 1.96-0.93333 1.2133-0.46667 2.5667-0.79334 1.3533-0.37333 2.6133-0.37333 3.22 0 4.9 1.1667 1.7267 1.12 2.38 3.64 0.65333 2.52 0.65333 6.6267v12.367h-3.64v-12.227q0-3.0333-0.37333-4.8533-0.32667-1.82-1.4-2.6133-1.0267-0.84-3.1733-0.84-1.1667 0-2.4267 0.28-1.2133 0.23333-2.2867 0.65333-1.0733 0.37334-1.7733 0.74667v18.853z"/>
     <path d="m35.32 761.45q-3.64 0-5.9733-1.0733-2.2867-1.0733-3.5933-3.1733-1.3067-2.1-1.82-5.18-0.46667-3.08-0.46667-7.0933 0-4.1067 0.46667-7.2333 0.51333-3.1267 1.82-5.2267 1.3067-2.1 3.5933-3.1733 2.3333-1.0733 5.9733-1.0733 1.68 0 3.3133 0.18667 1.68 0.14 3.1267 0.42 1.4467 0.23334 2.4733 0.46667l-0.14 3.1267q-1.0267-0.18667-2.52-0.37334-1.4933-0.18666-3.0333-0.32666t-2.8-0.14q-2.66 0-4.34 0.79333-1.6333 0.79333-2.52 2.4733-0.88667 1.6333-1.2133 4.1533-0.32667 2.4733-0.32667 5.9267 0 3.36 0.32667 5.88 0.32667 2.4733 1.1667 4.1067 0.88667 1.5867 2.5667 2.38 1.68 0.79333 4.3867 0.79333 1.96 0 4.2933-0.23333 2.38-0.28 4.0133-0.56l0.14 3.1733q-1.12 0.23334-2.6133 0.46667-1.4933 0.23333-3.1267 0.37333t-3.1733 0.14z"/>
     <path d="m58 761.45q-3.92 0-6.1133-1.3533-2.1467-1.3533-3.0333-4.1067-0.84-2.7533-0.84-6.9533 0-4.0133 0.93333-6.6267 0.98-2.6133 3.1733-3.92t5.88-1.3067q3.7333 0 5.9267 1.3067 2.1933 1.3067 3.1267 3.92 0.98 2.6133 0.98 6.6267 0 4.2-0.88667 6.9533-0.84 2.7533-3.0333 4.1067-2.1467 1.3533-6.1133 1.3533zm0-3.1267q2.7067 0 4.06-0.93334 1.3533-0.98 1.7733-3.0333 0.46667-2.0533 0.46667-5.32 0-3.22-0.56-5.1333-0.56-1.9133-1.9133-2.7533t-3.8267-0.84q-2.4267 0-3.8267 0.84-1.3533 0.84-1.9133 2.7533-0.56 1.9133-0.56 5.1333 0 3.2667 0.42 5.32 0.46667 2.0533 1.82 3.0333 1.3533 0.93334 4.06 0.93334z"/>
     <path d="m73.726 760.99v-23.333h3.5933v1.6333q0.79333-0.46666 1.96-0.93333 1.2133-0.46667 2.5667-0.79334 1.3533-0.37333 2.6133-0.37333 3.22 0 4.9 1.1667 1.7267 1.12 2.38 3.64 0.65333 2.52 0.65333 6.6267v12.367h-3.64v-12.227q0-3.0333-0.37333-4.8533-0.32667-1.82-1.4-2.6133-1.0267-0.84-3.1733-0.84-1.1667 0-2.4267 0.28-1.2133 0.23333-2.2867 0.65333-1.0733 0.37334-1.7733 0.74667v18.853z"/>
     <path d="m106.11 761.45q-1.0733 0-2.6133-0.14-1.4933-0.14-2.9867-0.32666-1.4933-0.23334-2.66-0.42l0.18667-3.1267q1.1667 0.14 2.6133 0.32666 1.4933 0.18667 2.8933 0.32667 1.4 0.0933 2.24 0.0933 1.9133 0 3.1733-0.32667 1.26-0.37334 1.9133-1.2133 0.65334-0.84 0.65334-2.38 0-1.1667-0.51334-1.82-0.46666-0.65333-1.82-1.0733-1.3067-0.42-3.8267-0.79334-2.6133-0.42-4.3867-1.0267-1.7267-0.65334-2.5667-1.9133-0.84-1.26-0.84-3.5933 0-2.6133 1.2133-4.1067 1.2133-1.4933 3.1267-2.1 1.96-0.65333 4.06-0.65333 1.3067 0 2.8467 0.14 1.5867 0.14 3.08 0.37333 1.4933 0.18667 2.5667 0.37334l-0.0933 3.1267q-1.12-0.18667-2.6133-0.32667-1.4933-0.18667-2.9867-0.28-1.4933-0.14-2.6133-0.14-1.4 0-2.52 0.32667-1.12 0.28-1.7733 1.0267-0.65333 0.74667-0.65333 2.1 0 1.0267 0.46666 1.68 0.46667 0.60666 1.7733 1.0267 1.3067 0.42 3.78 0.84 2.8933 0.46667 4.62 1.1667 1.7733 0.7 2.5667 1.96t0.79333 3.5467q0 4.1067-2.4267 5.74-2.4267 1.5867-6.6733 1.5867z"/>
     <path d="m127.67 761.45q-2.9867 0-4.5733-1.2133t-2.1933-3.78q-0.56-2.5667-0.56-6.6267v-12.18h3.5933v12.18q0 3.08 0.28 4.9 0.32667 1.82 1.3533 2.66 1.0267 0.79334 3.08 0.79334 2.0533 0 3.7333-0.56001 1.68-0.56 2.7067-1.12v-18.853h3.5933v23.333h-3.5933v-1.6333q-1.4933 0.84-3.2667 1.4933-1.7267 0.60666-4.1533 0.60666z"/>
     <path d="m145.69 760.99v-33.46h3.5933v33.46z"/>
     <path d="m163.93 761.5q-2.4267 0-3.8733-0.74667-1.4-0.74666-2.0067-2.5667-0.60666-1.8667-0.60666-5.2267v-12.18h-3.3133v-3.1267h3.3133v-7.14h3.5933v7.14h7.3267v3.1267h-7.3267v11.107q0 2.4733 0.18667 3.8733 0.23333 1.3533 0.93333 1.9133t2.1933 0.56q0.46666 0 1.2133-0.0467t1.4933-0.0933q0.79333-0.0933 1.4-0.14l0.23333 3.0333q-1.0267 0.14-2.4267 0.32666-1.4 0.18667-2.3333 0.18667z"/>
     <path d="m177.75 761.45q-3.22 0-4.9-1.82t-1.68-5.32q0-2.2867 0.79333-3.7333 0.79334-1.4467 2.38-2.1933 1.6333-0.79334 4.0133-0.98l7.1867-0.7v-2.0067q0-2.38-1.0733-3.36-1.0267-0.98-3.08-0.98-1.1667 0-2.8 0.0933-1.5867 0.0933-3.1733 0.23333-1.5867 0.14-2.8 0.28l-0.18667-2.7533q1.12-0.23334 2.7067-0.46667t3.3133-0.37333q1.7267-0.18667 3.1733-0.18667 2.66 0 4.34 0.84 1.68 0.79334 2.4267 2.4733 0.79334 1.6333 0.79334 4.2v11.807q0.0933 1.0267 0.79333 1.4933 0.74667 0.46667 1.8667 0.60667l-0.14 2.8467q-1.0267 0-1.8667-0.14-0.84-0.0933-1.5867-0.32666-0.60667-0.23334-1.1667-0.56-0.51333-0.32667-1.0267-0.79334-0.88667 0.37334-2.2867 0.79334-1.3533 0.42-2.94 0.7-1.54 0.32666-3.08 0.32666zm0.60667-3.0333q1.26 0 2.6133-0.23333 1.3533-0.23334 2.5667-0.56001 1.2133-0.32666 2.0067-0.60666v-7.6067l-6.7667 0.65333q-2.1 0.18667-3.0333 1.2133-0.88667 1.0267-0.88667 2.94 0 1.96 0.88667 3.08 0.88666 1.12 2.6133 1.12z"/>
     <path d="m203.46 761.5q-2.4267 0-3.8733-0.74667-1.4-0.74666-2.0067-2.5667-0.60666-1.8667-0.60666-5.2267v-12.18h-3.3133v-3.1267h3.3133v-7.14h3.5933v7.14h7.3267v3.1267h-7.3267v11.107q0 2.4733 0.18667 3.8733 0.23333 1.3533 0.93333 1.9133t2.1933 0.56q0.46667 0 1.2133-0.0467 0.74667-0.0467 1.4933-0.0933 0.79333-0.0933 1.4-0.14l0.23333 3.0333q-1.0267 0.14-2.4267 0.32666-1.4 0.18667-2.3333 0.18667z"/>
     <path d="m212.19 760.99v-23.333h3.5933v23.333zm0-28.467v-4.2h3.5933v4.2z"/>
     <path d="m231.46 761.45q-3.92 0-6.1133-1.3533-2.1467-1.3533-3.0333-4.1067-0.84-2.7533-0.84-6.9533 0-4.0133 0.93333-6.6267 0.98-2.6133 3.1733-3.92 2.1933-1.3067 5.88-1.3067 3.7333 0 5.9267 1.3067 2.1933 1.3067 3.1267 3.92 0.98 2.6133 0.98 6.6267 0 4.2-0.88667 6.9533-0.84 2.7533-3.0333 4.1067-2.1467 1.3533-6.1133 1.3533zm0-3.1267q2.7067 0 4.06-0.93334 1.3533-0.98 1.7733-3.0333 0.46666-2.0533 0.46666-5.32 0-3.22-0.56-5.1333-0.56-1.9133-1.9133-2.7533-1.3533-0.84-3.8267-0.84-2.4267 0-3.8267 0.84-1.3533 0.84-1.9133 2.7533-0.56 1.9133-0.56 5.1333 0 3.2667 0.42 5.32 0.46666 2.0533 1.82 3.0333 1.3533 0.93334 4.06 0.93334z"/>
     <path d="m247.19 760.99v-23.333h3.5933v1.6333q0.79333-0.46666 1.96-0.93333 1.2133-0.46667 2.5667-0.79334 1.3533-0.37333 2.6133-0.37333 3.22 0 4.9 1.1667 1.7267 1.12 2.38 3.64t0.65333 6.6267v12.367h-3.64v-12.227q0-3.0333-0.37333-4.8533-0.32667-1.82-1.4-2.6133-1.0267-0.84-3.1733-0.84-1.1667 0-2.4267 0.28-1.2133 0.23333-2.2867 0.65333-1.0733 0.37334-1.7733 0.74667v18.853z"/>
     <path d="m292.69 761.45q-4.3867 0-6.9067-1.2133-2.52-1.2133-3.5933-3.4067-1.0267-2.24-1.0267-5.32 0-2.7533 0.74667-4.5267 0.79333-1.82 2.38-2.94 1.6333-1.1667 4.06-1.96-1.1667-1.3533-1.7733-2.4267-0.56-1.0733-0.74667-2.1467-0.18666-1.0733-0.18666-2.4267 0-3.08 2.1467-4.9467 2.1467-1.9133 6.0667-1.9133 2.7533 0 4.5733 0.88667 1.82 0.84 2.7067 2.4733 0.88667 1.5867 0.88667 3.78 0 2.1933-0.74667 3.7333-0.74667 1.54-2.3333 2.7533-1.54 1.1667-4.06 2.38l6.9067 6.86q0.28-0.74667 0.56-2.1 0.28-1.3533 0.51334-2.8 0.23333-1.4933 0.28-2.5667l3.5 0.0467q-0.14 1.6333-0.51333 3.5-0.32667 1.82-0.74667 3.4533t-0.88667 2.7533l5.9733 5.6-2.1467 2.4267-5.6467-5.18q-1.5867 2.5667-4.1533 3.92-2.52 1.3067-5.8333 1.3067zm-0.32667-3.2667q2.6133 0 4.62-0.98001 2.0533-1.0267 3.1733-3.1267l-9.7533-9.7067q-1.96 0.60667-3.22 1.4933-1.2133 0.84-1.82 2.1467-0.56 1.3067-0.56 3.2667 0 3.36 1.7267 5.1333 1.7733 1.7733 5.8333 1.7733zm0.37333-16.147q2.0067-0.88667 3.22-1.7267 1.26-0.88667 1.82-1.96 0.56-1.12 0.56-2.7533 0-2.0533-1.0733-3.1267-1.0267-1.0733-3.4067-1.0733-2.1467 0-3.36 1.0733-1.1667 1.0267-1.1667 3.22 0 1.12 0.18666 2.0067 0.23334 0.84001 0.98 1.82 0.74667 0.98 2.24 2.52z"/>
     <path d="m332.07 760.99v-28.887h-9.8467v-3.36h23.333v3.36h-9.7533v28.887z"/>
     <path d="m345.61 760.99v-23.333h3.5933v3.1267q0.88667-0.60667 2.24-1.3067 1.3533-0.74667 2.9867-1.4 1.6333-0.65334 3.2667-0.93334v3.6867q-1.5867 0.32667-3.22 0.88667-1.6333 0.51333-3.0333 1.12-1.3533 0.60667-2.24 1.0733v17.08z"/>
     <path d="m366.89 761.45q-3.22 0-4.9-1.82t-1.68-5.32q0-2.2867 0.79333-3.7333 0.79333-1.4467 2.38-2.1933 1.6333-0.79334 4.0133-0.98l7.1867-0.7v-2.0067q0-2.38-1.0733-3.36-1.0267-0.98-3.08-0.98-1.1667 0-2.8 0.0933-1.5867 0.0933-3.1733 0.23333-1.5867 0.14-2.8 0.28l-0.18666-2.7533q1.12-0.23334 2.7067-0.46667 1.5867-0.23333 3.3133-0.37333 1.7267-0.18667 3.1733-0.18667 2.66 0 4.34 0.84 1.68 0.79334 2.4267 2.4733 0.79333 1.6333 0.79333 4.2v11.807q0.0933 1.0267 0.79334 1.4933 0.74666 0.46667 1.8667 0.60667l-0.14 2.8467q-1.0267 0-1.8667-0.14-0.84-0.0933-1.5867-0.32666-0.60667-0.23334-1.1667-0.56-0.51333-0.32667-1.0267-0.79334-0.88666 0.37334-2.2867 0.79334-1.3533 0.42-2.94 0.7-1.54 0.32666-3.08 0.32666zm0.60667-3.0333q1.26 0 2.6133-0.23333 1.3533-0.23334 2.5667-0.56001 1.2133-0.32666 2.0067-0.60666v-7.6067l-6.7667 0.65333q-2.1 0.18667-3.0333 1.2133-0.88666 1.0267-0.88666 2.94 0 1.96 0.88666 3.08 0.88667 1.12 2.6133 1.12z"/>
     <path d="m385.23 760.99v-23.333h3.5933v23.333zm0-28.467v-4.2h3.5933v4.2z"/>
     <path d="m395.54 760.99v-23.333h3.5933v1.6333q0.79333-0.46666 1.96-0.93333 1.2133-0.46667 2.5667-0.79334 1.3533-0.37333 2.6133-0.37333 3.22 0 4.9 1.1667 1.7267 1.12 2.38 3.64 0.65333 2.52 0.65333 6.6267v12.367h-3.64v-12.227q0-3.0333-0.37334-4.8533-0.32666-1.82-1.4-2.6133-1.0267-0.84-3.1733-0.84-1.1667 0-2.4267 0.28-1.2133 0.23333-2.2867 0.65333-1.0733 0.37334-1.7733 0.74667v18.853z"/>
     <path d="m420.65 760.99v-23.333h3.5933v23.333zm0-28.467v-4.2h3.5933v4.2z"/>
     <path d="m430.96 760.99v-23.333h3.5933v1.6333q0.79333-0.46666 1.96-0.93333 1.2133-0.46667 2.5667-0.79334 1.3533-0.37333 2.6133-0.37333 3.22 0 4.9 1.1667 1.7267 1.12 2.38 3.64 0.65333 2.52 0.65333 6.6267v12.367h-3.64v-12.227q0-3.0333-0.37334-4.8533-0.32666-1.82-1.4-2.6133-1.0267-0.84-3.1733-0.84-1.1667 0-2.4267 0.28-1.2133 0.23333-2.2867 0.65333-1.0733 0.37334-1.7733 0.74667v18.853z"/>
     <path d="m465.07 771.95q-3.64 0-5.88-0.65333-2.1933-0.60667-3.22-2.1467-0.98-1.54-0.98-4.2 0-1.3533 0.42-2.3333 0.42-0.93333 1.2133-1.7267 0.84-0.84 2.0533-1.7267-0.60666-0.46667-0.98-1.3067-0.32666-0.88667-0.32666-1.96 0-0.51334 0.51333-1.6333 0.56-1.1667 1.0733-2.0533-0.98-0.46667-1.82-1.26-0.79333-0.84-1.3067-2.24-0.51334-1.4-0.51334-3.5467 0-4.2933 2.4267-6.1133 2.4267-1.8667 6.3-1.8667 1.26 0 2.66 0.18667 1.4 0.18666 2.1933 0.42l6.9533-0.18667v3.08l-4.3867-0.0933q0.65333 0.65333 1.0733 1.7267 0.46667 1.0733 0.46667 2.8467 0 3.0333-1.0267 4.76-1.0267 1.7267-3.0333 2.4267t-5.04 0.7q-0.32666 0-1.12-0.0467-0.74666-0.0933-1.12-0.14-0.28 0.65334-0.56 1.4933t-0.28 1.1667q0 0.88667 0.32667 1.3533 0.32667 0.46666 1.4933 0.60666 1.2133 0.14 3.78 0.14 3.36 0 5.3667 0.56001 2.0067 0.56 2.8467 2.0533 0.88666 1.4467 0.88666 4.2467 0 3.9667-2.7533 5.6933-2.7533 1.7733-7.7 1.7733zm0.0467-3.08q3.4533 0 5.0867-0.98 1.6333-0.98 1.6333-3.22 0-1.7267-0.56-2.5667-0.51333-0.79334-1.7733-1.0733-1.26-0.23333-3.36-0.23333-0.42 0-1.1667 0-0.74667-0.0467-1.54-0.0467-0.79334-0.0467-1.4467-0.0933-0.60667-0.0467-0.84-0.0467-1.4467 1.0267-2.0067 1.82-0.56 0.84001-0.56 2.1933 0 1.54 0.56 2.4733 0.56 0.93334 1.96 1.3533 1.4467 0.42 4.0133 0.42zm-1.0733-18.713q2.8933 0 4.1067-1.12 1.2133-1.1667 1.2133-3.8733 0-2.7067-1.2133-3.8733-1.2133-1.1667-4.1067-1.1667-2.7067 0-3.92 1.1667-1.1667 1.1667-1.1667 3.8733 0 2.7067 1.1667 3.8733 1.2133 1.12 3.92 1.12z"/>
    </g>
    <g stroke-width=".26458px" aria-label="FACT">
     <path d="m-25.836 494.35v-28.66h19.431v6.223h-11.896v6.9427h9.4827v6.223h-9.4827v9.271z"/>
     <path d="m2.4321 494.35 6.9003-28.66h12.15l6.9427 28.66h-7.5777l-1.27-4.7413h-8.5513l-1.1853 4.7413zm9.652-10.626h6.604l-2.54-12.065h-1.4393z"/>
     <path d="m51.316 494.86q-3.429 0-5.6727-0.80433-2.2437-0.80434-3.556-2.54-1.3123-1.778-1.8627-4.6143t-0.55033-6.9003 0.55033-6.858q0.55033-2.8363 1.8627-4.572 1.3123-1.778 3.5983-2.5823 2.3283-0.84667 5.8843-0.84667 1.3123 0 2.8363 0.16934 1.5663 0.16933 3.048 0.42333 1.4817 0.254 2.5823 0.508l-0.21167 5.8843q-0.762-0.127-1.9897-0.254-1.1853-0.127-2.4553-0.21167-1.27-0.0847-2.413-0.0847-1.7357 0-2.8787 0.42334-1.1007 0.381-1.7357 1.3547-0.59267 0.93133-0.80433 2.54-0.21167 1.6087-0.21167 4.1063 0 2.4553 0.21167 4.1063 0.21167 1.6087 0.80433 2.5823 0.635 0.93133 1.7357 1.3547 1.143 0.381 2.921 0.381 1.6933 0 3.6407-0.127 1.9897-0.16934 3.2597-0.29634l0.127 5.842q-0.97367 0.21167-2.413 0.46567t-3.0903 0.381q-1.651 0.16933-3.2173 0.16933z"/>
     <path d="m78.738 494.35v-22.437h-6.9427v-6.223h21.167v6.223h-6.6887v22.437z"/>
    </g>
   </g>
   <g transform="translate(16.765 62.242)">
    <rect x="-27.519" y="296.09" width="119.37" height="143.53" ry="6.8071" fill="#edf0f1" stop-color="#000000"/>
    <g transform="matrix(.90435 0 0 .90435 -3.3266 28.496)">
     <g fill="#1d4457">
      <path d="m31.708 338.66c-0.0292-5e-3 -13.695 6.7405 2.5094 15.041 0 0 9.8238 4.3118 18.747 7.3711-1.5886 1.7886-11.729 1.5296-13.39 3.1707-11.355 11.314-20.713 15.721-20.713 15.721-0.14028-6.731 5.4055-3.9034-5.7953-0.93676-1.8659 2.2087-3.5474 4.4842-5.0121 6.7469-1.1666 2.4268 4.2952 10.443 6.4973 16.473 0.64908 1.7748 1.2275 3.5502 1.7539 5.318v-4e-3c13.125-2.6557 33.708-11.482 53.342-25.243-4e-3 0.01-5e-3 0.018-0.0108 0.0289 3.616-8.3277 6.1516-16.659 5.1289-22.802-0.0233-0.15558-0.0713-0.31027-0.10025-0.46302-9.4215-13.268-8.9996-11.654-15.565-17.27v0.0176c-6.4163-0.33054-18.71-1.2153-27.393-3.1693z"/>
      <path d="m50.371 440.87-5.3605-2.1357c-4.9033 2.8966-14.937 7.7417-24.464 8.0656-1e-3 0-1e-3 -1e-3 -1e-3 -1e-3 -0.28116 4.8754-0.75917 7.8133-0.75917 7.8133h43.922c-1.1797-4.8602-2.1294-9.5592-2.8624-14.069-4.7417 0.77012-7.9153 1.0238-10.474 0.32773"/>
      <path d="m53.481 423.56c-1.0333 0.92181-2.213 3.0826-2.4268 4.4538l-0.70802 4.5515 4.1726 1.9597c1.2524 0.58279 3.708 0.81597 5.049 0.47413l0.47413-0.0455c-0.73307-5.7905-1.0806-11.22-1.0474-16.199z"/>
     </g>
     <g>
      <g transform="matrix(.035278 0 0 -.035278 -18.334 531.41)" fill="#c65458">
       <g clip-path="url(#clipPath32-9-7-4-0-6-4-27)" fill="#c65458">
        <path d="m2972.2 4989.3c0-62.27 17.46-120.28 47.3-170.2-903.79-899.8-2211.3-1385.9-2486.4-1242.8-38.559 20.08-60.82 51.21-70.078 98.01-17.192 87.26 143.98 398.68 214.1 541.06-42.109 35.82-129.69 84.222-176.57 94.842-183.1-335.29-218.51-528.33-191.36-666.18 18.402-93.24 70.859-164.84 151.56-206.87 50.203-26.02 119.46-38.79 204.3-38.79 525.08 0 1641.6 488.83 2464.2 1308.7 51.13-32.03 111.29-50.86 176.01-50.86 183.6 0 333.09 149.41 333.09 333.09 0 183.63-149.49 333.04-333.09 333.04-183.67 0-333.08-149.41-333.08-333.04m156.76 0c0 97.26 79.06 176.29 176.32 176.29 97.15 0 176.37-79.03 176.37-176.29 0-97.27-79.22-176.33-176.37-176.33-97.26 0-176.32 79.06-176.32 176.33" fill="#c65458"/>
       </g>
      </g>
      <path d="m17.716 412.85v3e-3s0.1289-0.59564 1.3984 6.9797c1.2695 7.5753 1.6951 15.543 1.6221 21.462 6.9921-0.91511 18.058-5.1142 24.022-8.7796l0.83079-5.3509c0.41063-2.6349 2.2271-5.9616 4.2182-7.7322l9.5927-8.5482v8e-3c0.6544-6.5857 2.0973-12.124 4.3078-16.33 0.39829-0.75529 0.79622-1.5215 1.1945-2.2945-17.29 10.975-34.585 18.113-47.186 20.582" fill="#1d4457"/>
      <g transform="matrix(.035278 0 0 -.035278 -18.334 531.41)" fill="#c65458">
       <g clip-path="url(#clipPath52-0-7-7-9-5-3-1)" fill="#c65458">
        <path d="m2233.8 3605.7-411.17-366.25c-56.41-50.23-107.78-144.49-119.42-219.14l-23.59-151.64c-254.06-156.13-752.93-339.14-842.93-202.65-11.25 17.1-40.27 86.36 59.371 262.89-33.781 52.57-82.461 82.14-125.23 96.99-112.62-190.63-135.39-339.18-65.082-446.1 56.024-84.96 152.5-117.07 265.9-117.07 272.5 0 642.07 185.16 784.77 269.46l133.47-62.54c45.28-21.13 107.35-32.74 165.28-32.74 29.68 0 58.28 3.01 83 9.34l533.56 136.25c78.4 20.16 162.85 90.74 196.56 164.22l79.69 173.94-142.42 65.32-79.69-173.95c-14.1-30.74-60.24-69.18-93.01-77.69l-533.47-136.25c-38.05-9.69-107.62-3.01-143.17 13.47l-118.32 55.55 20.2 128.98c6.05 38.87 39.45 100.2 68.86 126.33l411.02 366.17c25.39 22.5 83.05 39.46 116.44 33.64l188.75-31.06 25.59 154.77-188.87 30.94c-12.61 2.1-25.82 3.16-39.41 3.16-72.54 0-155.7-28.99-206.68-74.34" fill="#c65458"/>
       </g>
      </g>
     </g>
     <path d="m46.508 339.71c16.454-10.116 27.873-12.95 31.95-7.898 3.1311 3.4434 1.9793 11.985-6.3873 26.252" fill="none" stroke="#c65458" stroke-width="5.2917"/>
     <path d="m17.716 412.86c-7.506 8.2527-11.457 15.063-12.165 20.617-0.39325 3.0842 0.36986 6.0345 2.2955 8.044 1.9256 2.0095 4.6726 2.7915 7.6982 3.0017l0.3855-5.3953c-2.1239-0.14754-3.4102-0.76041-4.0716-1.4506s-1.0386-1.5968-0.79634-3.4969c0.37723-2.9586 2.8434-7.9315 8.0579-14.3-2e-3 -0.0132 2.6413-1.0471 0 0-1.1291-6.7376-1.1875-7.0043-1.4041-7.0195z" color="#000000" fill="#c65458" fill-rule="evenodd" stroke-width=".035278" style="-inkscape-stroke:none"/>
     <g transform="matrix(.0048978 .016877 .016877 -.0048978 -127.3 422.08)" fill="#ffd42a">
      <rect transform="matrix(1.756 .97294 .97294 -1.756 2344.2 -635.21)" x="-208.02" y="-6533" width="1812.5" height="2503" fill="#fffef5" stop-color="#000000"/>
      <g fill="#1d4457" fill-opacity=".16884">
       <rect transform="matrix(1.756 .97294 .97294 -1.756 2344.2 -635.21)" x="50.322" y="-6028.4" width="1295.9" height="76.222" stop-color="#000000"/>
       <rect transform="matrix(1.756 .97294 .97294 -1.756 2344.2 -635.21)" x="50.322" y="-5713.4" width="1295.9" height="76.222" stop-color="#000000"/>
       <rect transform="matrix(1.756 .97294 .97294 -1.756 2344.2 -635.21)" x="50.322" y="-5398.4" width="1295.9" height="76.222" stop-color="#000000"/>
      </g>
      <g>
       <circle transform="matrix(.53276 .84626 .84626 -.53276 0 0)" cx="7160.3" cy="-5174.9" r="548.41" fill="#f0b93f" stop-color="#000000" stroke="#fff" stroke-linecap="round" stroke-linejoin="round" stroke-width="130.51"/>
       <path d="m89.699 8667.4c-128.86-69.231-91.617-305.92-137.06-356.78-49.294-48.857-173.05-49.392-247.9-74.159l688.24-445.24-85.627 404.1 400.52 101.14z" fill="#c65458" fill-rule="evenodd"/>
       <path d="m-808.34 8173.4c127.45 71.781 307.44-86.371 374.73-75.22 67.654 15.484 134.35 119.73 195.34 169.7l7.6603-819.66-295.49 288.64-299.83-284.16z" fill="#c65458" fill-rule="evenodd"/>
       <path d="m-900.44 9472c-58.604-27.01-79.36-157.58-123.53-204.62-52.73-56.159-195.85-100.87-228.72-170.54-27.531-58.36 40.489-171.71 36.891-236.14-4.2951-76.915-85.206-203.15-65.6-277.65 16.424-62.404 141.38-105.52 180.04-157.19 46.15-61.681 65.339-210.4 128.25-254.86 52.693-37.247 176.12 10.062 238.94-4.669 75-17.586 185.29-119.2 262.06-112.83 64.308 5.3375 128.48 120.92 186.07 150.02 68.758 34.738 218.55 27.799 273.27 82.028 45.832 45.425 20.652 175.19 46.069 234.5 30.342 70.807 149.56 161.8 156.62 238.51 5.9102 64.258-96.783 147.5-115.44 209.28-22.27 73.745 10.571 220.04-33.332 283.34-36.776 53.023-168.94 50.805-222.94 86.135-64.462 42.177-133.35 175.35-207.67 195.62-62.255 16.979-162.06-69.683-226.13-77.328-76.492-9.1266-214.89 48.64-284.85 16.395zm80.966-193.97a526.45 526.45 0 0 0 715.01-207.51 526.45 526.45 0 0 0-207.48-715 526.45 526.45 0 0 0-715.02 207.47 526.45 526.45 0 0 0 207.49 715.04z" fill="#f0b93f" stop-color="#000000"/>
      </g>
     </g>
     <path d="m31.708 338.66c-0.0292-5e-3 -13.695 6.7405 2.5094 15.041 0 0 14.285 5.8415 18.747 7.3711 4.4614 1.5296 2.3091 3.0053 0.64858 4.6464-11.918 9.9928-24.951 19.716-32.906 33.081 13.125-2.6557 25.547-9.198 45.181-22.959-11.567-6.4792 6e-3 -0.0109 0 0 3.616-8.3277 9.9007-10.153 8.878-16.297-0.0233-0.15558-0.0713-0.31027-0.10025-0.46303-9.4215-13.268-8.9996-11.654-15.565-17.27v0.0176c-6.4163-0.33055-18.71-1.2153-27.393-3.1693z" fill="#1d4457"/>
    </g>
   </g>
  </g>
 </g>
</svg>
